kinematics
version=1
nRows=14
nColumns=34
inDegrees=yes
endheader
time	pelvis_tilt	pelvis_list	pelvis_rotation	pelvis_tx	pelvis_ty	pelvis_tz	hip_flexion_r	hip_adduction_r	hip_rotation_r	knee_angle_r	ankle_angle_r	subtalar_angle_r	mtp_angle_r	hip_flexion_l	hip_adduction_l	hip_rotation_l	knee_angle_l	ankle_angle_l	subtalar_angle_l	mtp_angle_l	lumbar_extension	lumbar_bending	lumbar_rotation	arm_flex_r	arm_add_r	arm_rot_r	elbow_flex_r	pro_sup_r	arm_flex_l	arm_add_l	arm_rot_l	elbow_flex_l	pro_sup_l
15.891667	-9.756907	2.832381	-3.868800	0.002344	0.874018	0.115741	0.272969	-0.369497	-0.607881	47.275621	-18.440016	-10.079713	0.000000	29.009140	5.567556	1.760998	13.802843	-5.725632	-3.153942	0.000000	-1.076996	-4.928262	7.736402	15.500278	-13.342813	16.797953	88.196675	93.220612	-30.203865	-12.151294	-12.094291	88.763363	99.656738
15.900000	-9.339895	3.025410	-3.785688	0.003585	0.869784	0.116783	1.461432	-0.964339	-1.141708	52.471236	-17.899382	-12.093155	0.000000	27.940253	5.887369	1.821075	13.874638	-5.727980	-2.814524	0.000000	-1.219836	-5.480828	7.870088	14.004537	-12.907572	16.466661	86.744566	93.066992	-29.737459	-12.232595	-12.907994	89.346978	99.666362
15.908333	-8.946538	3.225123	-3.711530	0.004462	0.864850	0.117485	2.755010	-1.650589	-1.733172	57.789238	-17.279377	-14.274491	0.000000	26.901909	6.232536	1.762403	14.389796	-5.455333	-2.824329	0.000000	-1.311775	-6.019119	7.928612	12.347061	-12.409610	15.965735	85.240471	92.885672	-29.351289	-12.383407	-13.510641	90.407447	99.701483
15.916667	-8.570569	3.442446	-3.642083	0.005247	0.859545	0.117900	4.088100	-2.448182	-2.371910	63.069339	-16.584566	-16.467056	0.000000	25.837327	6.641930	1.712879	15.242347	-4.794005	-3.202808	0.000000	-1.366104	-6.548587	7.900889	10.550980	-11.898299	15.337162	83.724463	92.691224	-28.995363	-12.642803	-13.807561	91.874326	99.766406
15.925000	-8.212836	3.651588	-3.556710	0.005835	0.854145	0.117988	5.424168	-3.313746	-3.012758	68.174924	-15.885051	-18.579462	0.000000	24.733988	7.111159	1.741716	16.383806	-3.586873	-3.781192	0.000000	-1.398324	-7.014371	7.729498	8.670820	-11.345116	14.572364	82.157106	92.473058	-28.638944	-12.979352	-13.773700	93.685213	99.884490
15.933333	-7.856827	3.805820	-3.387166	0.006222	0.848967	0.117802	6.670138	-4.170554	-3.670446	72.893332	-15.196239	-20.470634	0.000000	23.557779	7.627706	2.002180	17.740221	-1.831392	-4.540030	0.000000	-1.464821	-7.360011	7.319600	6.747378	-10.855674	13.855959	80.604807	92.273286	-28.162830	-13.412937	-13.390222	95.644566	100.029179
15.941667	-7.544943	3.921511	-3.186762	0.006362	0.844195	0.117627	7.901517	-4.939079	-4.141498	77.140812	-14.740754	-21.990142	0.000000	22.318624	8.162727	2.425949	19.150606	0.389638	-5.275596	0.000000	-1.520769	-7.618214	6.727841	4.816718	-10.308438	13.013484	78.971349	92.061779	-27.485190	-13.967721	-12.612625	97.614065	100.258604
15.950000	-7.295944	3.990933	-2.949490	0.006211	0.839801	0.117287	9.138807	-5.545324	-4.417704	80.878822	-14.595019	-22.876350	0.000000	21.050197	8.689721	2.974647	20.543016	2.951085	-5.827843	0.000000	-1.568138	-7.776456	6.005567	2.848835	-9.696710	11.971497	77.354800	91.833667	-26.531803	-14.678203	-11.369797	99.505543	100.645252
15.958333	-7.093547	3.985257	-2.663448	0.005770	0.835753	0.116870	10.409860	-5.959685	-4.526667	84.234715	-14.675445	-23.464746	0.000000	19.736323	9.166633	3.652079	21.859428	5.658094	-6.305787	0.000000	-1.675293	-7.802114	5.042180	0.973421	-9.195059	11.108595	75.792043	91.644428	-25.395290	-15.319293	-10.101197	101.234577	101.025037
15.966667	-6.974401	3.948626	-2.375340	0.005387	0.832064	0.116479	11.775799	-6.177362	-4.422210	87.256242	-14.773218	-23.652167	0.000000	18.389379	9.582312	4.299004	22.994670	8.364851	-6.490712	0.000000	-1.754259	-7.777715	4.136610	-1.016704	-8.669434	9.925477	74.427319	91.434859	-23.850386	-16.033462	-8.493557	102.759708	101.591401
15.975000	-6.946030	3.826096	-2.054567	0.004576	0.828552	0.116172	13.283587	-6.141967	-4.187929	89.976404	-14.776443	-23.526268	0.000000	17.030235	9.850000	4.901535	23.901024	10.877772	-6.428857	0.000000	-1.820351	-7.625055	3.224869	-3.073375	-8.177377	8.573244	73.357131	91.226583	-21.989560	-16.723738	-6.683816	104.193523	102.271174
15.983333	-6.968016	3.588102	-1.682990	0.003791	0.825533	0.115982	14.910631	-5.837382	-3.900456	92.425010	-14.589252	-23.401987	0.000000	15.608195	9.907185	5.433827	24.546880	12.946362	-6.192205	0.000000	-1.918745	-7.351193	2.126729	-5.018453	-7.820732	7.440542	72.434661	91.068000	-20.042399	-17.193921	-5.142542	105.590339	102.913460
15.991667	-7.064814	3.248527	-1.314778	0.002858	0.823114	0.116042	16.780416	-5.338029	-3.554022	94.605104	-13.739772	-23.067437	0.000000	14.163617	9.753598	5.806916	24.951172	14.503967	-5.849446	0.000000	-1.957305	-6.958790	1.131560	-7.109513	-7.507963	6.107783	71.977368	90.893168	-17.738452	-17.602810	-3.396770	106.832823	103.550136
16.000000	-7.201994	2.767069	-0.930033	0.001878	0.821589	0.116207	18.895259	-4.631301	-3.180604	96.382253	-12.387043	-22.912026	0.000000	12.667534	9.348725	6.108072	25.088055	15.423939	-5.502814	0.000000	-1.944830	-6.426656	-0.066184	-9.031252	-7.338233	5.065457	71.610413	90.763692	-15.386781	-17.791188	-2.016020	107.992935	104.064246
